<?xml version="1.0" encoding="UTF-8" standalone="no"?>
<svg
   xmlns:dc="http://purl.org/dc/elements/1.1/"
   xmlns:cc="http://creativecommons.org/ns#"
   xmlns:rdf="http://www.w3.org/1999/02/22-rdf-syntax-ns#"
   xmlns:svg="http://www.w3.org/2000/svg"
   xmlns="http://www.w3.org/2000/svg"
   xmlns:sodipodi="http://sodipodi.sourceforge.net/DTD/sodipodi-0.dtd"
   xmlns:inkscape="http://www.inkscape.org/namespaces/inkscape"
   height="475"
   viewBox="0 0 310 475"
   width="310"
   id="svg2"
   version="1.1"
   inkscape:version="0.91 r13725"
   sodipodi:docname="1483032131_aiga_railtransportion.svg">
  <metadata
     id="metadata24">
    <rdf:RDF>
      <cc:Work
         rdf:about="">
        <dc:format>image/svg+xml</dc:format>
        <dc:type
           rdf:resource="http://purl.org/dc/dcmitype/StillImage" />
      </cc:Work>
    </rdf:RDF>
  </metadata>
  <defs
     id="defs22" />
  <sodipodi:namedview
     pagecolor="#ffffff"
     bordercolor="#666666"
     borderopacity="1"
     objecttolerance="10"
     gridtolerance="10"
     guidetolerance="10"
     inkscape:pageopacity="0"
     inkscape:pageshadow="2"
     inkscape:window-width="766"
     inkscape:window-height="792"
     id="namedview20"
     showgrid="false"
     inkscape:zoom="0.49684211"
     inkscape:cx="155"
     inkscape:cy="237.5"
     inkscape:window-x="-7"
     inkscape:window-y="0"
     inkscape:window-maximized="0"
     inkscape:current-layer="svg2" />
  <rect
     height="330"
     rx="65"
     width="270"
     x="20"
     y="40"
     id="rect4"
     fill="#000" />
  <rect
     fill="#fff"
     height="100"
     rx="30"
     width="200"
     x="55"
     y="100"
     id="rect6" />
  <rect
     fill="#fff"
     height="40"
     rx="10"
     width="80"
     x="115"
     y="50"
     id="rect8" />
  <circle
     cx="135"
     cy="20"
     fill="#000"
     r="15"
     id="circle10" />
  <circle
     cx="175"
     cy="20"
     fill="#000"
     r="15"
     id="circle12" />
  <circle
     cx="85"
     cy="315"
     fill="#fff"
     r="25"
     id="circle14" />
  <circle
     cx="225"
     cy="315"
     fill="#fff"
     r="25"
     id="circle16" />
  <polygon
     fill="#000"
     points="0,475 70,360 240,360 310,475 265,475 220,400 90,400 45,475"
     id="polygon18" />
  <path
     d="m 154.9782,-204.75794 c -83.213999,0 -161.260999,38.735 -219.776999,109.065003 -5.573,6.69 -4.663,16.636 2.04,22.209 2.944,2.453 6.521,3.655 10.078,3.655 4.523,0 9.016,-1.942 12.13,-5.695 52.42,-62.984003 121.853,-97.676003 195.527999,-97.676003 73.688,0 143.132,34.691 195.527,97.676003 5.573,6.703 15.519,7.613 22.221,2.04 6.69,-5.561 7.602,-15.519 2.04,-22.209 -58.503,-70.330003 -136.555,-109.065003 -219.787,-109.065003 z"
     id="path3337"
     inkscape:connector-curvature="0" />
  <path
     d="m 154.9782,-125.80694 c -62.358999,0 -120.801999,28.973003 -164.563999,81.562003 -5.573,6.704 -4.663,16.648004 2.041,22.222004 6.69000002,5.574 16.647,4.65 22.209,-2.04 37.666,-45.255004 87.493999,-70.185004 140.314999,-70.185004 52.839,0 102.666,24.917 140.314,70.185004 3.121,3.752 7.613,5.684 12.137,5.684 3.552,0 7.134,-1.19 10.078,-3.644 6.697,-5.573 7.607,-15.518004 2.04,-22.222004 -43.745,-52.589 -102.194,-81.562003 -164.57,-81.562003 z"
     id="path3339"
     inkscape:connector-curvature="0" />
  <path
     d="m 154.9782,-40.806937 c -41.085,0 -79.528999,19.015004 -108.257999,53.549004 -5.574,6.702 -4.663,16.636 2.04,22.209 2.95,2.453 6.521,3.655 10.078,3.655 4.529,0 9.022,-1.943 12.136,-5.695 22.628,-27.1879996 52.456999,-42.1719996 84.003999,-42.1719996 31.553,0 61.387,14.984 84.009,42.1719996 5.573,6.702 15.513,7.613 22.209,2.052 6.702,-5.573 7.613,-15.519 2.046,-22.221 -28.724,-34.535 -67.167,-53.549004 -108.264,-53.549004 z"
     id="path3341"
     inkscape:connector-curvature="0" />
</svg>
